<svg width="1260" height="195" xmlns="http://www.w3.org/2000/svg" preserveAspectRatio="xMidYMid meet">
 <metadata>Created by potrace 1.15, written by Peter Selinger 2001-2017</metadata>

 <g>
  <title>Layer 1</title>
  <g id="svg_1" transform="translate(0 640) scale(0.1 -0.1)">
   <path id="svg_2" fill="#3F51B5" d="m6938,6263l-128,-128l0,-505c-1,-428 -3,-508 -15,-524c-12,-16 -15,-54 -15,-173l0,-153l-33,0c-28,0 -45,13 -119,88l-88,87l-2,185c-3,183 -3,185 -25,188c-20,3 -23,9 -23,48c0,37 -3,44 -20,44c-18,0 -20,7 -20,60c0,46 -3,60 -14,60c-11,0 -16,15 -18,53l-3,52l-52,3l-53,3l0,-56c0,-40 -4,-57 -15,-61c-11,-4 -15,-21 -15,-55c0,-42 -3,-49 -20,-49c-19,0 -20,-7 -20,-220l0,-220l-29,0c-28,0 -30,-2 -33,-47c-3,-45 -5,-48 -37,-54c-20,-4 -52,-25 -82,-55l-49,-48l0,247c0,238 -1,247 -19,247c-14,0 -21,8 -23,28c-3,26 -5,27 -58,27c-53,0 -55,-1 -58,-27c-3,-22 -9,-28 -28,-28l-24,0l0,-145l0,-145l-55,0l-55,0l0,71l0,70l-42,-3c-35,-2 -43,-7 -43,-23c0,-13 -8,-21 -22,-23c-20,-3 -23,-9 -23,-48l0,-44l-89,0l-88,0l-47,50c-38,41 -46,56 -46,88c0,30 -7,45 -35,72c-26,25 -35,42 -35,67c0,31 -2,33 -35,33c-31,0 -35,3 -35,25c0,24 -3,25 -60,25c-57,0 -60,-1 -60,-24c0,-17 -6,-26 -21,-28c-20,-3 -21,-9 -22,-138l-2,-135l-27,-3c-27,-3 -28,-5 -28,-66c0,-62 0,-62 -55,-116l-55,-54l0,281l0,282l-72,3l-73,3l-3,38l-3,37l-93,0l-93,0l-52,-54l-51,-55l0,-190l0,-191l-38,0c-26,0 -45,-7 -56,-19c-10,-11 -32,-21 -50,-23c-31,-3 -31,-3 -34,-66l-3,-63l-77,3l-77,3l-5,120l-5,120l-57,3l-58,3l0,369l0,370l-92,0c-86,0 -94,-2 -120,-27c-28,-26 -28,-28 -28,-150l0,-124l-42,3l-43,3l-3,337l-2,337l-78,3l-77,3l-3,58c-2,31 -8,57 -13,57c-6,0 -54,-43 -107,-96l-97,-96l-5,-516l-5,-517l-55,0l-55,0l-3,93c-2,73 -6,92 -17,92c-13,0 -15,24 -15,140l0,140l-30,0c-20,0 -39,9 -54,25c-21,23 -31,25 -103,25c-70,0 -82,-3 -101,-23c-21,-22 -22,-32 -22,-215l0,-192l-60,0l-60,0l0,-95l0,-96l-87,3l-88,3l-3,403l-2,402l-109,0l-110,0l-3,-32c-2,-25 -8,-34 -25,-36l-23,-3l0,-400l0,-399l-29,0c-28,0 -30,-2 -33,-47l-3,-48l-57,-3l-58,-3l0,76c0,73 -1,75 -25,75l-25,0l0,100l0,100l-30,0c-28,0 -30,2 -30,40c0,36 -3,40 -24,40c-21,0 -25,6 -28,33l-3,32l-65,0c-51,0 -65,-3 -65,-15c0,-10 -13,-17 -40,-20l-40,-5l-3,-98l-3,-98l-42,3l-42,3l-3,108l-3,107l-58,0c-48,0 -61,-4 -81,-25c-20,-21 -33,-25 -82,-25l-58,0l0,-180c0,-137 -3,-180 -12,-182c-7,0 -20,-1 -28,-2c-9,-1 -16,-13 -18,-34l-3,-33l-112,3l-112,3l-3,213c-2,179 -5,212 -17,212c-10,0 -15,10 -15,30c0,30 -1,30 -55,30c-52,0 -55,-2 -55,-24c0,-18 -6,-25 -22,-28c-17,-2 -24,-11 -26,-30c-2,-16 -7,-28 -12,-28c-6,0 -11,-83 -12,-187l-3,-188l-65,0l-65,0l-5,74l-5,73l-85,2l-85,1l-3,273c-2,264 -3,272 -22,272c-13,0 -20,7 -20,20c0,18 -7,20 -61,20c-33,0 -58,-4 -55,-9c11,-18 -6,-41 -30,-41l-24,0l0,-170l0,-170l-55,0l-55,0l-2,-172l-3,-173l-32,-3l-33,-3l0,220l0,221l-41,0c-32,0 -42,-4 -46,-20c-3,-11 -14,-20 -24,-20c-17,0 -19,-13 -21,-197c-3,-197 -3,-198 -25,-201l-23,-3l0,-695l0,-694l6400,0l6400,0l0,870l0,870l-70,0l-70,0l-2,-172l-3,-173l-75,0l-75,0l-3,333l-2,332l-53,0c-48,0 -56,-3 -90,-38l-37,-38l0,-182l0,-182l-29,0c-39,0 -81,-49 -81,-96c0,-27 -4,-34 -20,-34c-19,0 -20,7 -20,210l0,210l-48,0c-64,0 -90,-26 -94,-95l-3,-50l-57,-3l-58,-3l-2,193c-3,185 -4,193 -23,193c-13,0 -21,8 -23,23c-3,19 -9,23 -35,20c-27,-2 -33,-8 -35,-30c-3,-25 -8,-28 -39,-28l-36,0l5,-317c3,-175 3,-342 1,-370l-6,-53l-118,0l-119,0l0,135l0,135l-45,0l-44,0l-3,118l-3,117l-87,3l-88,3l0,-226l0,-225l-35,0l-35,0l0,119c0,117 -1,120 -26,140c-20,15 -41,21 -80,21l-54,0l0,135l0,135l-65,0l-65,0l0,-149c0,-133 -2,-151 -20,-174c-15,-19 -20,-40 -20,-91l0,-66l-55,0l-54,0l-3,148l-3,147l-62,3l-63,3l0,-30c0,-29 -2,-30 -47,-33l-48,-3l-3,-117l-3,-118l-54,0l-55,0l0,135l0,135l-53,0c-44,0 -58,-4 -77,-25c-20,-21 -33,-25 -80,-25c-70,0 -100,-25 -100,-83l0,-37l-55,0l-54,0l-3,133l-3,132l-97,3l-98,3l0,-85l0,-85l-72,-3l-73,-3l-3,-117l-3,-118l-89,0l-90,0l0,35c0,28 -8,42 -45,76c-43,39 -45,44 -45,95l0,54l-70,0l-70,0l0,-78c0,-64 -4,-82 -18,-95c-32,-29 -74,-21 -115,21c-35,35 -37,42 -37,100l0,62l-35,0l-35,0l0,140l0,140l-80,0l-80,0l0,-320l0,-321l-62,3l-63,3l-3,141l-3,141l-29,28c-29,28 -30,32 -30,118c0,118 -5,127 -80,127l-60,0l0,-173l0,-173l-30,-29l-30,-29l0,92l0,92l-30,0c-25,0 -30,4 -30,24c0,32 -7,36 -59,29c-31,-4 -45,-11 -48,-24c-4,-13 -15,-19 -34,-19l-29,0l-2,-172l-3,-173l-60,0l-60,0l-3,213l-2,212l-28,0c-20,0 -41,14 -77,50c-47,47 -52,50 -102,50c-50,0 -53,-1 -53,-25c0,-22 -4,-25 -40,-25l-40,0l0,-40l0,-40l-55,0c-54,0 -55,0 -55,-30c0,-27 -3,-30 -30,-30l-30,0l0,-170l0,-170l-74,0c-58,0 -75,3 -80,16c-3,9 -6,71 -6,139c0,97 -3,125 -15,135c-11,9 -15,34 -15,96l0,84l-60,0l-60,0l-2,575l-3,575l-127,-127z"/>
  </g>
 </g>
</svg>